<svg xmlns="http://www.w3.org/2000/svg" viewBox="0 0 512 512"><title>Artboard 110</title><g id="Key"><path d="M463.08464,377.7513,312.194,226.86068A139.08069,139.08069,0,1,0,226.86068,312.194l50.47265,50.47266h21.33334V384L320,405.33333h42.66667V448L384,469.33333h64s21.33333.026,21.33333-21.33333V392.83594A21.33233,21.33233,0,0,0,463.08464,377.7513Zm-324.418-207.08463a32,32,0,1,1,32-32A31.99992,31.99992,0,0,1,138.66667,170.66667Z" style="fill:#fcdf3f"/><path d="M292.89323,229.95964A127.92506,127.92506,0,1,0,42.9362,186.668a138.45037,138.45037,0,0,0,133.0625,133.0625s22.92136,2.353,50.862-7.53646l50.47265,50.47266h21.33334V384L320,405.33333h42.66667V448L384,469.33333h64s21.33333.026,21.33333-21.33333V406.39974Zm-154.22656-59.293a32,32,0,1,1,32-32A31.99992,31.99992,0,0,1,138.66667,170.66667Z" style="fill:#ffef7d"/><path d="M448,469.33333a21.26418,21.26418,0,0,1-15.08333-6.25L283.58333,313.75A21.33106,21.33106,0,1,1,313.75,283.58333L463.08333,432.91667A21.33333,21.33333,0,0,1,448,469.33333Z" style="fill:#fcdf3f"/><path d="M181.33333,298.66667a10.66667,10.66667,0,0,1,0-21.33334,96,96,0,0,0,0-192,10.66667,10.66667,0,0,1,0-21.33333,117.33334,117.33334,0,1,1,0,234.66667Z" style="fill:#fcdf3f"/><path d="M181.33333,298.66667a117.33333,117.33333,0,0,1,0-234.66667,10.66667,10.66667,0,1,1,0,21.33333,96,96,0,0,0,0,192,10.66667,10.66667,0,0,1,0,21.33334Z" style="fill:#fbc700"/><path d="M437.33333,469.33333a10.63207,10.63207,0,0,1-7.54166-3.125L280.45833,316.875a10.66553,10.66553,0,0,1,15.08334-15.08333L444.875,451.125a10.66667,10.66667,0,0,1-7.54167,18.20833Z" style="fill:#fbc700"/><path d="M224,256a10.66667,10.66667,0,0,1-7.54167-18.20833l35.125-35.125L224,175.08333,210.20833,188.875A10.66552,10.66552,0,0,1,195.125,173.79167l21.33333-21.33334a10.6628,10.6628,0,0,1,15.08334,0L274.20833,195.125a10.66277,10.66277,0,0,1,0,15.08333L231.54167,252.875A10.63213,10.63213,0,0,1,224,256Z" style="fill:#fcdf3f"/><path d="M202.66667,277.33333a10.63207,10.63207,0,0,1-7.54167-3.125l-42.66667-42.66666a10.6628,10.6628,0,0,1,0-15.08334L195.125,173.79167A10.66552,10.66552,0,0,1,210.20833,188.875L175.08333,224l27.58334,27.58333,13.79166-13.79166A10.66553,10.66553,0,1,1,231.54167,252.875l-21.33334,21.33333A10.63207,10.63207,0,0,1,202.66667,277.33333Z" style="fill:#fbc700"/></g></svg>